<?xml version="1.0" encoding="UTF-8" standalone="no"?>
<!-- Created with Inkscape (http://www.inkscape.org/) -->

<svg
   width="433.93167"
   height="423.42349"
   viewBox="0 0 114.81108 112.0308"
   version="1.1"
   id="svg5"
   inkscape:version="1.1.1 (3bf5ae0d25, 2021-09-20)"
   sodipodi:docname="logo-done.svg"
   xmlns:inkscape="http://www.inkscape.org/namespaces/inkscape"
   xmlns:sodipodi="http://sodipodi.sourceforge.net/DTD/sodipodi-0.dtd"
   xmlns="http://www.w3.org/2000/svg"
   xmlns:svg="http://www.w3.org/2000/svg">
  <sodipodi:namedview
     id="namedview7"
     pagecolor="#3f3f3f"
     bordercolor="#666666"
     borderopacity="1.0"
     inkscape:pageshadow="2"
     inkscape:pageopacity="1"
     inkscape:pagecheckerboard="true"
     inkscape:document-units="px"
     showgrid="false"
     showborder="true"
     inkscape:snap-smooth-nodes="false"
     inkscape:snap-page="false"
     inkscape:zoom="1.0960216"
     inkscape:cx="83.02756"
     inkscape:cy="88.045709"
     inkscape:window-width="1600"
     inkscape:window-height="835"
     inkscape:window-x="0"
     inkscape:window-y="32"
     inkscape:window-maximized="1"
     inkscape:current-layer="layer2"
     inkscape:snap-intersection-paths="false"
     inkscape:object-paths="true"
     showguides="false"
     inkscape:snap-object-midpoints="true"
     inkscape:snap-center="false"
     inkscape:object-nodes="false"
     inkscape:snap-others="false"
     inkscape:snap-nodes="false"
     units="px"
     fit-margin-top="20"
     fit-margin-left="20"
     fit-margin-right="20"
     fit-margin-bottom="20"
     lock-margins="true"
     borderlayer="false"
     inkscape:showpageshadow="false" />
  <defs
     id="defs2">
    <inkscape:path-effect
       effect="copy_rotate"
       starting_point="-121.36708,83.878083"
       origin="-136.20504,83.878083"
       id="path-effect18772"
       is_visible="true"
       lpeversion="1"
       method="normal"
       num_copies="9"
       starting_angle="0"
       rotation_angle="40"
       gap="-0.01"
       copies_to_360="true"
       mirror_copies="false"
       split_items="false" />
    <inkscape:path-effect
       effect="copy_rotate"
       starting_point="-121.36708,83.878083"
       origin="-136.20504,83.878083"
       id="path-effect18018"
       is_visible="true"
       lpeversion="1"
       method="normal"
       num_copies="9"
       starting_angle="0"
       rotation_angle="40"
       gap="-0.01"
       copies_to_360="true"
       mirror_copies="false"
       split_items="false" />
    <inkscape:path-effect
       origin="-136.20505,83.878082"
       starting_point="-121.36708,83.878082"
       effect="copy_rotate"
       id="path-effect17380"
       is_visible="true"
       lpeversion="1"
       method="normal"
       num_copies="9"
       starting_angle="5.4874234e-14"
       rotation_angle="60"
       gap="-0.01"
       copies_to_360="true"
       mirror_copies="false"
       split_items="false" />
    <filter
       inkscape:collect="always"
       style="color-interpolation-filters:sRGB"
       id="filter109790"
       x="-0.067406454"
       y="-0.070107032"
       width="1.1354961"
       height="1.1402115">
      <feGaussianBlur
         inkscape:collect="always"
         stdDeviation="1.7062983"
         id="feGaussianBlur109792" />
    </filter>
    <filter
       inkscape:collect="always"
       style="color-interpolation-filters:sRGB"
       id="filter109794"
       x="-0.042352244"
       y="-0.043960521"
       width="1.0850479"
       height="1.0879198">
      <feGaussianBlur
         inkscape:collect="always"
         stdDeviation="1.2100066"
         id="feGaussianBlur109796" />
    </filter>
    <filter
       inkscape:collect="always"
       style="color-interpolation-filters:sRGB"
       id="filter109798"
       x="-1.1310065"
       y="-1.1646479"
       width="3.2621519"
       height="3.3292953">
      <feGaussianBlur
         inkscape:collect="always"
         stdDeviation="46.440877"
         id="feGaussianBlur109800" />
    </filter>
  </defs>
  <g
     inkscape:groupmode="layer"
     id="layer2"
     inkscape:label="blue"
     style="display:inline;mix-blend-mode:normal;filter:url(#filter109790)"
     transform="translate(73.454928,40.874852)">
    <path
       id="path109904"
       style="fill:none;fill-opacity:1;stroke:#0400ff;stroke-width:5.29167;stroke-linecap:round;stroke-linejoin:round;stroke-miterlimit:4;stroke-dasharray:none;stroke-opacity:1"
       d="m -51.190894,57.390733 c -0.1877,-0.18908 -0.378,-0.37519 -0.5713,-0.55854 -3.2542,-3.080045 -7.420803,-5.174975 -11.831103,-5.961225 -0.4754,-0.0789 -0.9562,-0.17122 -1.4343,-0.20212 -0.1342,0.0734 -0.3606,0.0439 -0.4246,0.1959 -0.051,0.15846 -0.2074,0.3135 -0.09,0.47679 0.086,0.2989 0.357,0.49066 0.536,0.73487 3.299,3.812255 7.376303,6.952125 11.922603,9.135225 1.6389,0.79138 3.3364,1.46091 5.0726,2.00682 0.1483,-0.0422 0.3537,0.01 0.4651,-0.0939 0.081,-0.15427 0.2806,-0.28055 0.1915,-0.4736 -0.033,-0.32231 -0.2733,-0.57129 -0.4137,-0.85361 -0.9587,-1.5993 -2.1115,-3.08149 -3.4231,-4.4068 z m -0.551,0.19661 c 1.5342,1.5161 2.8452,3.24244 3.8937,5.12737 -3.3502,-1.04867 -6.5335,-2.57079 -9.453,-4.52007 -2.909003,-1.95494 -5.524503,-4.314515 -7.766803,-7.008125 3.5758,0.41954 7.0015,1.68057 9.995403,3.680365 1.1935,0.79969 2.3087,1.71059 3.3307,2.72046 z m 6.9231,-6.568765 c -0.1876,-0.18908 -0.378,-0.37519 -0.5712,-0.55854 -3.2542,-3.08006 -7.4209,-5.17498 -11.8312,-5.96123 -0.4753,-0.0789 -0.956203,-0.17122 -1.434203,-0.20212 -0.1343,0.0734 -0.3607,0.0439 -0.4246,0.19589 -0.051,0.15847 -0.2074,0.31351 -0.09,0.4768 0.087,0.29889 0.357,0.49066 0.5361,0.73487 3.299003,3.81226 7.376303,6.95213 11.922603,9.135215 1.6389,0.79139 3.3363,1.46093 5.0725,2.00683 0.1484,-0.0422 0.3538,0.01 0.4652,-0.0939 0.081,-0.15427 0.2805,-0.28054 0.1915,-0.47359 -0.033,-0.32231 -0.2733,-0.5713 -0.4137,-0.85361 -0.9587,-1.599305 -2.1115,-3.081485 -3.4231,-4.406795 z m -0.551,0.1966 c 1.5343,1.51611 2.8452,3.24245 3.8938,5.127375 -3.3502,-1.04867 -6.5335,-2.570795 -9.4531,-4.520065 -2.9089,-1.95495 -5.5244,-4.31453 -7.766703,-7.00813 3.575803,0.41954 7.001403,1.68057 9.995403,3.68037 1.1935,0.79968 2.3087,1.7106 3.3306,2.72045 z m 6.9232,-6.56876 c -0.1877,-0.18908 -0.378,-0.37519 -0.5713,-0.55854 -3.2542,-3.08005 -7.4208,-5.17498 -11.8311,-5.96123 -0.4753,-0.0789 -0.9562,-0.17122 -1.4343,-0.20211 -0.1342,0.0734 -0.3606,0.0439 -0.4245,0.19589 -0.051,0.15846 -0.2075,0.3135 -0.09,0.47679 0.087,0.2989 0.357,0.49066 0.5361,0.73487 3.2989,3.81226 7.3762,6.95213 11.9225,9.13523 1.6389,0.79139 3.3364,1.46092 5.0726,2.00682 0.1483,-0.0422 0.3538,0.01 0.4652,-0.0939 0.081,-0.15427 0.2805,-0.28055 0.1914,-0.47359 -0.033,-0.32232 -0.2733,-0.5713 -0.4137,-0.85361 -0.9587,-1.59931 -2.1115,-3.08149 -3.4231,-4.40681 z m -0.551,0.19661 c 1.5342,1.51611 2.8452,3.24245 3.8937,5.12738 -3.3502,-1.04867 -6.5334,-2.5708 -9.453,-4.52007 -2.909,-1.95495 -5.5245,-4.31453 -7.7667,-7.00814 3.5757,0.41955 7.0014,1.68058 9.9953,3.68038 1.1935,0.79968 2.3088,1.71059 3.3307,2.72045 z M -1.9477946,2.2070266 c -0.1379,-0.13513 -0.281,-0.26566 -0.4271,-0.39279 -0.7335,-0.60904 -1.5486,-1.1232702 -2.4322,-1.4850602 -0.823,-0.34609 -1.6991,-0.56756 -2.587,-0.65986 -0.9341,-0.10151 -1.881,-0.0487 -2.8022994,0.13116 -0.9606,0.20229 -1.8919,0.54773 -2.7432,1.03813 -0.8823,0.5046102 -1.6794,1.1567902 -2.3499,1.9209102 -0.6643,0.7576497 -1.2048,1.6253297 -1.5885,2.5574597 -0.3427,0.82437 -0.563,1.70073 -0.6522,2.58897 -0.099,0.92584 -0.044,1.86371 0.1349,2.7767407 0.2023,0.96027 0.5469,1.89135 1.0373,2.74238 0.8142,1.420781 2.0078,2.626241 3.4355,3.432651 2.2615,1.30461 5.0860994,1.57121 7.5518994,0.71364 1.7701,-0.59867 3.3418,-1.75648 4.4441,-3.26452 0.5964,-0.812231 1.0602,-1.721581 1.3637,-2.682861 0.3038,-0.96053 0.45160004,-1.9714907 0.42790004,-2.9791407 -0.017,-0.88382 -0.16550004,-1.76577 -0.43480004,-2.60756 -0.2824,-0.89643 -0.7116,-1.7425 -1.2468,-2.51402 -0.3376,-0.4727797 -0.7164,-0.9117297 -1.1313,-1.3161697 z m -0.2568,0.48344 a 8.6984762,8.6984754 45 0 1 0,12.3011014 8.6984762,8.6984754 45 0 1 -12.3014994,3.4e-4 8.6984762,8.6984754 45 0 1 0,-12.3018114 8.6984762,8.6984754 45 0 1 12.3014994,3.7e-4 z m 8.9031,-6.9819 c -0.3745,-0.39188 -0.8859,-0.70074 -1.2077,-1.13314 -0.5007,-0.4350802 -0.8225,-1.1705302 -1.5446,-1.2354602 -2.0785,0.51508 -4.0474,1.4836202 -5.7066,2.8395602 -0.3663,-0.35214 -1.2323,-0.32714 -1.3315,-0.81994 -0.056,-2.0745102 -0.5785,-4.1298502 -1.4847,-5.9952486 -0.7013,-0.60019 -1.7141,-0.24723 -2.56,-0.44504 -0.7366,-0.0335 -1.7685,-0.48196 -2.1906,0.37746 -1.1421994,1.6476384 -1.9354994,3.5373584 -2.3144994,5.5059486 -0.51,-0.0312 -1.1605,0.53885 -1.5559,0.2295 -1.374,-1.5515702 -3.095,-2.7870002 -4.9853,-3.6325302 -0.9155,-0.009 -1.4576,0.90452 -2.226,1.29354 -0.5887,0.45429 -1.6834,0.77224 -1.4536,1.7094002 0.1846,1.99925 0.7888,3.96072 1.7696,5.7131098 -0.4101,0.29981 -0.5379,1.1555602 -1.0402,1.1689702 -2.053,-0.3042902 -4.1677,-0.14951 -6.1619,0.42058 -0.7061,0.58163 -0.5351,1.6284097 -0.8744,2.4193397 -0.16,0.72694 -0.7943,1.67464 -0.015,2.24509 1.4247,1.41485 3.1516,2.52441 5.0269,3.24083 -0.1218,0.4930207 0.3354,1.2319607 -0.043,1.5635207 -1.7691,1.08573 -3.2892,2.56635 -4.4499,4.285551 -0.1695,0.90707 0.6441,1.6062 0.8952,2.43724 0.3383,0.65434 0.4649,1.77084 1.42,1.705 1.9969,0.17044 4.0316,-0.0867 5.9244,-0.74507 0.2271,0.45846 1.0492,0.73341 0.9785,1.23214 -0.654,1.96636 -0.8671,4.07357 -0.6515,6.1334 0.4546,0.80308 1.5274,0.81361 2.2535,1.29027 0.6799,0.28413 1.4956,1.05972 2.1855,0.395 1.6422,-1.15556 3.0339,-2.66562 4.0644,-4.38822 0.4641,0.20483 1.2699994,-0.11576 1.5306994,0.31315 0.7625,1.93088 1.9564,3.68503 3.4465,5.12813 0.864,0.32149 1.6934,-0.35296 2.5557,-0.45895 0.7037,-0.21952 1.8273,-0.14905 1.929,-1.10168 0.5113,-1.94081 0.613,-3.99146 0.2923,-5.97295 0.4883,-0.14221 0.9033,-0.90333 1.3768,-0.74621 1.8236,0.99172 3.8661,1.56508 5.9346,1.71272 0.8687,-0.3098 1.0671,-1.36235 1.6619,-1.99516 0.3981,-0.62057 1.3029,-1.28879 0.7692,-2.08388 -0.8548,-1.81265 -2.0919,-3.44815 -3.6103,-4.756921 0.2847,-0.4264 0.1105,-1.27729 0.5785,-1.46562 2.0306,-0.41298 3.9616002,-1.2831 5.6375006,-2.4993707 0.4682,-0.78352 -0.054,-1.70768 0,-2.56299 -0.1017,-0.73996 0.1853,-1.85243 -0.7535,-2.12374 -1.8213006,-0.83815 -3.8195006,-1.29645 -5.8246006,-1.32641 -0.058,-0.5071597 -0.7364,-1.0478897 -0.4981,-1.4912697 1.2878,-1.6233502 2.2109,-3.53033 2.7117,-5.53996 -0.056,-0.33968 -0.2313,-0.60452 -0.456,-0.83969 z m -0.054,0.69867 c -0.5175,2.11953 -1.5377,4.1138498 -2.9536,5.77381 a 14.074448,14.074445 45 0 1 0.8956,1.9209397 c 2.1819,-0.017 4.365,0.48362 6.3212006,1.45025 l 0.099,1.80585 0.216,1.79816 C 9.4639054,10.447337 7.4007054,11.319077 5.2490054,11.680507 a 14.074448,14.074445 45 0 1 -0.5488,2.04704 c 1.6824,1.389431 3.0334,3.176971 3.9106,5.174891 l -1.0853,1.44702 -0.9902,1.51646 c -2.1774,-0.14165 -4.3184,-0.80005 -6.1991,-1.90631 7e-4,-7.1e-4 -0.01,-0.009 0,-0.01 a 14.074448,14.074445 45 0 1 -1.735,1.21535 c 0.3973,2.14812 0.2834,4.38835 -0.3297,6.48518 l -1.7615,0.41114 -1.7328,0.52545 c -1.5769,-1.50804 -2.7944,-3.38896 -3.524,-5.44534 0,-0.002 0,-0.004 0.01,-0.006 a 14.074448,14.074445 45 0 1 -2.1104994,-0.18414 c -1.0764,1.90118 -2.6036,3.54417 -4.4211,4.75652 l -1.6133,-0.81745 -1.6652,-0.71144 c -0.2385,-2.16845 0.038,-4.39159 0.8003,-6.43558 a 14.074448,14.074445 45 0 1 -0.7779,-0.72018 14.074448,14.074445 45 0 1 -0.7206,-0.77832 c -2.0445,0.76219 -4.2676,1.03808 -6.4363,0.79879 l -0.7104,-1.66337 -0.8185,-1.6158 c 1.2114,-1.814791 2.8522,-3.339681 4.7507,-4.415211 0,-10e-4 0.01,0.005 0.01,0.004 a 14.074448,14.074445 45 0 1 -0.1849,-2.1106307 c -2.0592,-0.72992 -3.9424,-1.94898 -5.4519,-3.52837 l 0.5248,-1.73053 0.4114,-1.7642297 c 2.0945,-0.61157 4.3319,-0.72485 6.4776,-0.32848 -7e-4,7.1e-4 0.01,0.008 0.01,0.008 a 14.074448,14.074445 45 0 1 1.2146,-1.7357202 c -1.1081,-1.8826898 -1.7674,-4.0271698 -1.9085,-6.20713 l 1.5146,-0.98848 1.4492,-1.08673 c 1.9972,0.87763 3.7836,2.22876 5.1724,3.9109802 a 14.074448,14.074445 45 0 1 2.0481,-0.54848 c 0.3622,-2.1513402 1.2341994,-4.2146502 2.5256994,-5.9729686 l 1.7956,0.21637 1.8084,0.099 c 0.966,1.9564484 1.4665,4.1400584 1.4488,6.3219486 0,0.002 0,0.004 -0.01,0.006 a 14.074448,14.074445 45 0 1 1.9198,0.89527 c 1.6617,-1.41843 3.6589,-2.4401 5.7815,-2.9576602 l 1.2373,1.3198802 z M 22.239406,-22.239502 c -0.6163,-0.59496 -1.2701,-1.1535 -1.888,-1.74623 -2.778,-2.31179 -5.8357,-4.30274 -9.1568,-5.74169 -3.1735006,-1.42214 -6.5590006,-2.3729 -10.0020006,-2.85239 -3.9069,-0.54315 -7.9038,-0.47156 -11.7828994,0.2456 -4.3105,0.76991 -8.4782,2.31806 -12.2532,4.53575 -3.4075,1.98919 -6.4842,4.53807 -9.1012,7.49053 -3.0438,3.45672 -5.4516,7.47335 -7.0407,11.7982484 -1.6114,4.3501502 -2.391,9.0053 -2.3013,13.6435999 -0.054,1.06428 0.2223,2.17548 0.122,3.2039 -2.2583,2.8014307 -3.8645,6.1190217 -4.6385,9.6343417 -0.8173,3.70582 -0.7172,7.61027 0.3088,11.26587 1.0229,3.68873 2.9752,7.11498 5.6295,9.8748 2.651,2.77023 6.0057,4.84808 9.6508,6.03398 3.5441,1.13116 7.3527,1.40476 11.0222,0.78637 3.7349,-0.63084 7.2954,-2.19832 10.3057994,-4.49531 3.5822,0.4592 7.2248,0.43293 10.7935,-0.13224 3.8218,-0.60409 7.5432,-1.81017 11.0028006,-3.54337 3.419,-1.73793 6.5726,-3.99043 9.3197,-6.66834 2.7699,-2.73741 5.1201,-5.89543 6.9333,-9.34341 1.8048,-3.47088 3.0719,-7.21812 3.7344,-11.074781 0.6495,-3.8590507 0.6903,-7.8162404 0.1297,-11.6897704 -0.5778,-3.83508 -1.7332,-7.5834802 -3.4469,-11.0649186 -1.7283,-3.51048 -4.0143,-6.7426 -6.7399,-9.55066 -0.1945,-0.20895 -0.3957,-0.41154 -0.6013,-0.60974 z m -0.1224,0.60622 a 36.847306,36.847298 45 0 1 0,52.10934 36.847306,36.847298 45 0 1 -31.1459006,10.41553 22.772977,22.772974 45 0 1 -30.1453994,-1.80581 22.772977,22.772974 45 0 1 -1.3893,-30.6679517 36.847306,36.847298 45 0 1 10.5709,-30.0514383 36.847306,36.847298 45 0 1 52.1097,3.3e-4 z"
       inkscape:export-filename="/home/bartek/Pictures/logo/logo-full.png"
       inkscape:export-xdpi="300"
       inkscape:export-ydpi="300" />
  </g>
  <g
     inkscape:groupmode="layer"
     id="layer5"
     inkscape:label="interp_darker"
     style="display:inline;mix-blend-mode:normal;filter:url(#filter109794)"
     transform="translate(73.454928,40.874852)">
    <path
       id="path109906"
       style="fill:none;fill-opacity:1;stroke:#5451fc;stroke-width:2.64583;stroke-linecap:round;stroke-linejoin:round;stroke-miterlimit:4;stroke-dasharray:none;stroke-opacity:1"
       d="m -51.17407,57.390707 c -0.1877,-0.18908 -0.3781,-0.37526 -0.5713,-0.55854 -3.2542,-3.080045 -7.420803,-5.174975 -11.831203,-5.961295 -0.4753,-0.0789 -0.9561,-0.17115 -1.4342,-0.20205 -0.1342,0.0734 -0.3607,0.0438 -0.4246,0.1959 -0.051,0.15846 -0.2074,0.3135 -0.09,0.47679 0.086,0.2989 0.357,0.49066 0.536,0.73487 3.299,3.812255 7.376303,6.952125 11.922503,9.135155 1.639,0.79145 3.3364,1.46091 5.0726,2.00682 0.1483,-0.0422 0.3538,0.01 0.4652,-0.0939 0.081,-0.15427 0.2806,-0.28055 0.1915,-0.4736 -0.033,-0.32231 -0.2733,-0.57129 -0.4137,-0.85361 -0.9587,-1.5993 -2.1115,-3.08156 -3.4231,-4.4068 z m -0.551,0.19661 c 1.5341,1.51603 2.8452,3.24244 3.8937,5.12737 -3.3502,-1.04867 -6.5335,-2.57079 -9.453,-4.52007 -2.909003,-1.95494 -5.524503,-4.314515 -7.766803,-7.008195 3.5758,0.41961 7.0015,1.68064 9.995303,3.680365 1.1936,0.79976 2.3088,1.71066 3.3308,2.72053 z m 6.9231,-6.568765 c -0.1876,-0.18908 -0.378,-0.37526 -0.5712,-0.55854 -3.2542,-3.08006 -7.4209,-5.17498 -11.8312,-5.9613 -0.4754,-0.0789 -0.956203,-0.17115 -1.434203,-0.20205 -0.1343,0.0734 -0.3607,0.0438 -0.4246,0.19589 -0.051,0.15847 -0.2074,0.31351 -0.09,0.4768 0.087,0.29889 0.357,0.49066 0.5361,0.73487 3.299003,3.81226 7.376303,6.95213 11.922503,9.135145 1.639,0.79146 3.3364,1.46093 5.0726,2.00683 0.1483,-0.0422 0.3538,0.01 0.4652,-0.0939 0.081,-0.15427 0.2805,-0.28054 0.1915,-0.47359 -0.033,-0.32231 -0.2733,-0.5713 -0.4137,-0.85361 -0.9587,-1.599305 -2.1116,-3.081555 -3.4231,-4.406795 z m -0.551,0.1966 c 1.5342,1.51604 2.8452,3.24245 3.8938,5.127375 -3.3502,-1.04867 -6.5335,-2.570795 -9.4531,-4.520065 -2.9089,-1.95495 -5.5244,-4.31453 -7.766803,-7.0082 3.575903,0.41961 7.001503,1.68064 9.995403,3.68037 1.1936,0.79975 2.3088,1.71067 3.3307,2.72052 z m 6.9232,-6.56876 c -0.1877,-0.18908 -0.3781,-0.37526 -0.5713,-0.55854 -3.2542,-3.08005 -7.4208,-5.17498 -11.8312,-5.9613 -0.4753,-0.0789 -0.9561,-0.17115 -1.4342,-0.20204 -0.1342,0.0734 -0.3607,0.0438 -0.4245,0.19589 -0.051,0.15846 -0.2075,0.3135 -0.09,0.47679 0.087,0.2989 0.357,0.49066 0.5361,0.73487 3.2989,3.81226 7.3762,6.95213 11.9224,9.13516 1.639,0.79146 3.3364,1.46092 5.0726,2.00682 0.1483,-0.0422 0.3539,0.01 0.4653,-0.0938 0.081,-0.15427 0.2805,-0.28055 0.1914,-0.47359 -0.033,-0.32232 -0.2733,-0.5713 -0.4137,-0.85361 -0.9587,-1.59931 -2.1115,-3.08156 -3.4231,-4.40681 z m -0.551,0.19661 c 1.5341,1.51604 2.8452,3.24245 3.8937,5.12738 -3.3502,-1.04867 -6.5334,-2.5708 -9.453,-4.52007 -2.909,-1.95495 -5.5245,-4.31453 -7.7668,-7.00821 3.5758,0.41962 7.0015,1.68065 9.9953,3.68038 1.1936,0.79975 2.3089,1.71066 3.3308,2.72052 z M -1.9309698,2.2070014 c -0.138,-0.1352 -0.2811,-0.26573 -0.4271,-0.39279 -0.7335,-0.60904 -1.5487,-1.12333984 -2.4322,-1.48505984 -0.823,-0.34609 -1.6991,-0.56756 -2.5871,-0.65993 -0.934,-0.10144 -1.8809,-0.0486 -2.8022002,0.13123 -0.9607,0.20222 -1.8919,0.54773 -2.7432,1.03813 -0.8823,0.50460984 -1.6794,1.15678984 -2.3499,1.92090984 -0.6643,0.7576497 -1.2049,1.6252597 -1.5885,2.5574597 -0.3427,0.82437 -0.563,1.70073 -0.6522,2.58897 -0.099,0.92584 -0.044,1.86371 0.1348,2.7766709 0.2024,0.96034 0.547,1.89142 1.0374,2.74238 0.8142,1.42085 2.0078,2.62631 3.4355,3.43272 2.2615,1.30461 5.0861002,1.57121 7.5519002,0.71364 1.7701,-0.59867 3.3418,-1.75648 4.44409986,-3.26452 0.5964,-0.81223 1.0602,-1.72158 1.3637,-2.68286 0.3038,-0.96053 0.45160004,-1.9714909 0.42790004,-2.9791409 -0.017,-0.88382 -0.16550004,-1.76577 -0.43480004,-2.60756 -0.2824,-0.89643 -0.7116,-1.7425 -1.2468,-2.51402 C -1.1373699,3.0503814 -1.5160698,2.6115014 -1.9309698,2.2070614 Z m -0.2568,0.48344 a 8.6984762,8.6984754 45 0 1 -1e-4,12.3010306 8.6984762,8.6984754 45 0 1 -12.3014002,4.1e-4 8.6984762,8.6984754 45 0 1 0,-12.3018106 8.6984762,8.6984754 45 0 1 12.3015002,3.7e-4 z m 8.9031,-6.9819 c -0.3745,-0.39188 -0.8859,-0.70074 -1.2077,-1.13314 -0.5007,-0.4350802 -0.8225,-1.1705302 -1.5446,-1.2354602 -2.0785,0.51508 -4.04740014,1.4836202 -5.7066,2.8395602 -0.3663,-0.35214 -1.2323,-0.32714 -1.3315,-0.81994 -0.056,-2.0745802 -0.5785,-4.1298502 -1.4847,-5.9952494 -0.7013,-0.60019 -1.7141,-0.24723 -2.56,-0.44504 -0.7367,-0.0336 -1.7685,-0.48196 -2.1906,0.37746 -1.1422002,1.6476392 -1.9355002,3.5373592 -2.3145002,5.5059494 -0.51,-0.0312 -1.1605,0.53885 -1.556,0.22943 -1.3739,-1.5515002 -3.0949,-2.7869302 -4.9852,-3.6324602 -0.9155,-0.009 -1.4576,0.90445 -2.226,1.29354 -0.5887,0.45429 -1.6834,0.77224 -1.4536,1.7094002 0.1846,1.99925 0.7888,3.96072 1.7696,5.71311016 -0.4101,0.29981 -0.5379,1.15555984 -1.0402,1.16896984 -2.053,-0.30428984 -4.1678,-0.14958 -6.1619,0.42058 -0.7061,0.58163 -0.5351,1.6284097 -0.8744,2.4193397 -0.16,0.72694 -0.7943,1.67464 -0.015,2.24509 1.4246,1.41478 3.1516,2.52434 5.0268,3.24076 -0.1217,0.4930909 0.3355,1.2320309 -0.043,1.5635909 -1.7691,1.08573 -3.2892,2.56635 -4.4499,4.28555 -0.1695,0.90707 0.644,1.60613 0.8952,2.43724 0.3382,0.65427 0.4649,1.77084 1.42,1.705 1.9969,0.17044 4.0316,-0.0867 5.9244,-0.74507 0.2271,0.45846 1.0492,0.73341 0.9785,1.23214 -0.654,1.96636 -0.8671,4.07357 -0.6515,6.1334 0.4546,0.80308 1.5274,0.81361 2.2534,1.2902 0.68,0.2842 1.4957,1.05979 2.1855,0.395 1.6423,-1.15549 3.0339,-2.66562 4.0645,-4.38815 0.464,0.20476 1.2700002,-0.11576 1.5307002,0.31315 0.7624,1.93081 1.9564,3.68503 3.4465,5.12813 0.864,0.32149 1.6934,-0.35296 2.5557,-0.45895 0.7037,-0.21952 1.8273,-0.14905 1.9289999,-1.10168 0.51129996,-1.94081 0.61289996,-3.99154 0.29229996,-5.97295 0.4883,-0.14221 0.9033,-0.90333 1.3768,-0.74621 1.82360014,0.99172 3.86600014,1.56501 5.93460014,1.71265 0.8687,-0.30973 1.0671,-1.36228 1.6619,-1.99509 0.3981,-0.62057 1.3029,-1.28879 0.7691,-2.08395 -0.8547,-1.81258 -2.0918,-3.44808 -3.6102,-4.75685 0.2847,-0.42647 0.1104,-1.27736 0.5785,-1.46562 2.0306,-0.41298 3.9616002,-1.2831 5.6374998,-2.4994409 0.4682,-0.78345 -0.054,-1.70761 0,-2.56292 -0.1017,-0.73996 0.1853,-1.85243 -0.7535,-2.12374 -1.8212998,-0.83815 -3.8194998,-1.29645 -5.8246998,-1.32648 -0.058,-0.5071597 -0.7364,-1.0478997 -0.498,-1.4911997 1.2878,-1.62334984 2.2109,-3.53033 2.7117,-5.53996 -0.056,-0.33968 -0.2314,-0.60459 -0.456,-0.83969 z m -0.054,0.69867 c -0.5175,2.11953 -1.5377,4.11385016 -2.9536,5.77381 a 14.074448,14.074445 45 0 1 0.8956,1.9209397 c 2.1818,-0.0171 4.365,0.48362 6.3211998,1.45025 l 0.099,1.80585 0.216,1.79816 C 9.4807302,10.447242 7.4175302,11.319052 5.2658302,11.680482 a 14.074448,14.074445 45 0 1 -0.5488,2.04704 c 1.6824,1.38943 3.0334,3.17697 3.9106,5.17489 l -1.0853,1.44702 -0.9902,1.51646 c -2.1774,-0.14165 -4.3185,-0.80012 -6.19920014,-1.90638 7e-4,-7.1e-4 0,-0.009 0,-0.01 a 14.074448,14.074445 45 0 1 -1.73499986,1.21535 c 0.39739986,2.14819 0.2834999,4.38842 -0.3296,6.48525 l -1.7615,0.41114 -1.7328,0.52545 c -1.577,-1.50811 -2.7944,-3.38896 -3.524,-5.44534 0,-0.002 0,-0.004 0.01,-0.006 a 14.074448,14.074445 45 0 1 -2.1105002,-0.18414 c -1.0765,1.90111 -2.6036,3.54417 -4.4211,4.75652 l -1.6133,-0.81745 -1.6652,-0.71144 c -0.2386,-2.16852 0.038,-4.39159 0.8003,-6.43558 a 14.074448,14.074445 45 0 1 -0.7779,-0.72018 14.074448,14.074445 45 0 1 -0.7206,-0.77832 c -2.0445,0.76219 -4.2676,1.03808 -6.4364,0.79872 l -0.7103,-1.6633 -0.8185,-1.6158 c 1.2113,-1.81486 2.8522,-3.33968 4.7507,-4.41521 0,-0.001 0.01,0.005 0.01,0.004 a 14.074448,14.074445 45 0 1 -0.1849,-2.1106309 c -2.0592,-0.72992 -3.9424,-1.94898 -5.4519,-3.52837 l 0.5247,-1.7306 0.4115,-1.7641597 c 2.0944,-0.61164 4.3319,-0.72485 6.4775,-0.32855 -7e-4,7.1e-4 0.01,0.008 0.01,0.008 a 14.074448,14.074445 45 0 1 1.2146,-1.73564984 c -1.1081,-1.88269016 -1.7674,-4.02717016 -1.9085,-6.20720036 l 1.5146,-0.98841 1.4492,-1.08673 c 1.9972,0.87763 3.7835,2.22869 5.1724,3.9109802 a 14.074448,14.074445 45 0 1 2.0481,-0.54848 c 0.3622,-2.1513402 1.2342002,-4.2146502 2.5257002,-5.9729694 l 1.7955,0.21629 1.8085,0.0991 c 0.966,1.9564492 1.4665,4.1400592 1.4488,6.3219494 0,0.002 0,0.004 -0.01,0.006 a 14.074448,14.074445 45 0 1 1.9198,0.89519 c 1.66169986,-1.41835 3.6589,-2.44002 5.7815,-2.9575802 l 1.2373,1.3198802 z M 22.25623,-22.239528 c -0.6163,-0.59496 -1.2701,-1.1535 -1.8881,-1.7463 -2.7779,-2.31172 -5.8356,-4.30267 -9.1567,-5.74162 -3.1734998,-1.42214 -6.5589998,-2.3729 -10.0019998,-2.85239 -3.9069,-0.54315 -7.9038,-0.47156 -11.7829002,0.2456 -4.3105,0.76991 -8.4782,2.31806 -12.2532,4.53575 -3.4076,1.98912 -6.4842,4.53807 -9.1012,7.49053 -3.0438,3.45672 -5.4516,7.47335 -7.0407,11.7982492 -1.6114,4.3501502 -2.391,9.00530036 -2.3013,13.6435999 -0.054,1.06428 0.2222,2.17541 0.122,3.2039 -2.2584,2.8013609 -3.8645,6.1190209 -4.6385,9.6343409 -0.8173,3.70582 -0.7172,7.61027 0.3088,11.26587 1.0229,3.68873 2.9752,7.11498 5.6295,9.8748 2.651,2.77023 6.0057,4.84808 9.6508,6.03398 3.5441,1.13116 7.3527,1.40469 11.0221,0.7863 3.735,-0.63077 7.2955,-2.19825 10.3059002,-4.49524 3.5822,0.4592 7.2248,0.43293 10.7935,-0.13224 3.8218,-0.60409 7.5432,-1.81017 11.0027998,-3.54337 3.4189,-1.738 6.5726,-3.99043 9.3197,-6.66834 2.7699,-2.73741 5.1201,-5.89543 6.9332,-9.34348 1.8049,-3.47081 3.0719,-7.21812 3.7345,-11.07471 0.6495,-3.8590509 0.6903,-7.8162406 0.1297,-11.6897706 -0.5778,-3.83508 -1.7332,-7.5834802 -3.4469,-11.0649194 -1.7283,-3.51048 -4.0143,-6.7426 -6.7399,-9.55066 -0.1945,-0.20895 -0.3957,-0.41154 -0.6013,-0.60974 z m -0.1224,0.60622 a 36.847306,36.847298 45 0 1 -10e-5,52.10927 36.847306,36.847298 45 0 1 -31.1457998,10.4156 22.772977,22.772974 45 0 1 -30.1454002,-1.80581 22.772977,22.772974 45 0 1 -1.3893,-30.6679509 36.847306,36.847298 45 0 1 10.5709,-30.0515091 36.847306,36.847298 45 0 1 52.1097,4e-4 z"
       inkscape:export-filename="/home/bartek/Pictures/logo/logo-full.png"
       inkscape:export-xdpi="300"
       inkscape:export-ydpi="300" />
  </g>
  <g
     inkscape:groupmode="layer"
     id="layer6"
     inkscape:label="shadow"
     style="display:inline;opacity:0.24181"
     transform="translate(73.454928,40.874852)">
    <path
       id="path110620"
       style="display:inline;mix-blend-mode:normal;fill:none;fill-opacity:1;stroke:#000000;stroke-width:0.777631;stroke-linecap:round;stroke-linejoin:round;stroke-miterlimit:4;stroke-dasharray:none;stroke-opacity:1"
       d="m -51.096743,55.768494 c -0.187346,-0.18182 -0.37739,-0.360851 -0.570225,-0.537094 -3.248081,-2.96179 -7.406849,-4.976285 -11.808949,-5.732414 -0.47441,-0.07586 -0.95431,-0.16458 -1.4315,-0.194293 -0.13396,0.07058 -0.36003,0.04212 -0.42381,0.188378 -0.0509,0.152376 -0.20701,0.301463 -0.0898,0.458485 0.0858,0.287424 0.35632,0.47182 0.53498,0.706654 3.2928,3.665885 7.362433,6.685202 11.900084,8.784416 1.635918,0.761062 3.330126,1.404818 5.063061,1.929769 0.14802,-0.04058 0.353135,0.0096 0.464325,-0.0903 0.08084,-0.148347 0.280072,-0.269778 0.191139,-0.455417 -0.03295,-0.309934 -0.272786,-0.549355 -0.412922,-0.820835 -0.956896,-1.537896 -2.107528,-2.963245 -3.416662,-4.237604 z m -0.549964,0.189061 c 1.531216,1.457824 2.839849,3.117949 3.886378,4.930508 -3.343899,-1.008407 -6.521213,-2.472087 -9.435223,-4.346524 -2.903535,-1.879881 -5.514115,-4.148862 -7.752195,-6.73912 3.56908,0.4035 6.988331,1.616114 9.976504,3.53906 1.191357,0.769054 2.304459,1.64498 3.324536,2.616076 z m 6.910081,-6.316561 c -0.187246,-0.181819 -0.377289,-0.36085 -0.570125,-0.537094 -3.24808,-2.961803 -7.406945,-4.97629 -11.808951,-5.732419 -0.474507,-0.07586 -0.954408,-0.164578 -1.431505,-0.194293 -0.134047,0.07058 -0.360026,0.04212 -0.423806,0.188369 -0.0509,0.152386 -0.207013,0.301473 -0.08982,0.458494 0.08683,0.287414 0.356327,0.471821 0.535092,0.706655 3.292801,3.66589 7.362434,6.685207 11.900084,8.784406 1.635917,0.761073 3.330127,1.404838 5.063061,1.929779 0.14802,-0.04058 0.353134,0.0096 0.464325,-0.0903 0.08084,-0.148348 0.279972,-0.269769 0.191139,-0.455407 -0.03295,-0.309935 -0.272785,-0.549364 -0.412921,-0.820836 -0.956898,-1.5379 -2.10763,-2.96324 -3.416663,-4.237599 z m -0.549964,0.189052 c 1.531315,1.457833 2.83985,3.117959 3.886478,4.930512 -3.3439,-1.008406 -6.521214,-2.47209 -9.435323,-4.346519 -2.90343,-1.87989 -5.514011,-4.148875 -7.7522,-6.739123 3.569182,0.403499 6.988339,1.616113 9.976608,3.539064 1.191357,0.769044 2.304459,1.64499 3.324437,2.616066 z m 6.910181,-6.316554 c -0.187347,-0.181821 -0.377389,-0.360853 -0.570226,-0.537096 -3.24808,-2.961794 -7.406844,-4.97629 -11.80895,-5.732419 -0.474406,-0.07586 -0.954303,-0.164579 -1.431504,-0.194283 -0.133947,0.07058 -0.360022,0.04212 -0.423701,0.18837 -0.05091,0.152375 -0.207109,0.301461 -0.08983,0.458484 0.08684,0.287423 0.356328,0.47182 0.535091,0.706653 3.292695,3.66589 7.362328,6.685207 11.899979,8.784421 1.635918,0.761072 3.330126,1.404828 5.06306,1.929769 0.148021,-0.04058 0.353235,0.0096 0.464425,-0.0902 0.08084,-0.148346 0.279973,-0.269777 0.19104,-0.455406 -0.03295,-0.309945 -0.272787,-0.549365 -0.412922,-0.820836 -0.956897,-1.537906 -2.107529,-2.963246 -3.416663,-4.237612 z m -0.549964,0.18906 c 1.531215,1.457833 2.839849,3.117958 3.886378,4.930518 -3.3439,-1.008408 -6.521114,-2.472097 -9.435224,-4.346525 -2.903529,-1.879891 -5.51411,-4.148876 -7.752193,-6.739132 3.569075,0.403507 6.988332,1.616121 9.976503,3.539072 1.191356,0.769044 2.304558,1.64498 3.324536,2.616067 z M -1.9462496,2.7035414 c -0.137741,-0.13001 -0.280572,-0.255527 -0.426297,-0.3777078 -0.73212,-0.5856564 -1.545788,-1.0802112 -2.427626,-1.42804302 -0.821453,-0.3328021 -1.695905,-0.5457689 -2.582235,-0.6345923 -0.932245,-0.097545 -1.877362,-0.046733 -2.7969294,0.1261914 -0.958894,0.1944559 -1.888343,0.5267002 -2.738042,0.99827142 -0.88064,0.4852363 -1.67624,1.1123753 -2.345481,1.847157 -0.66305,0.728561 -1.202634,1.56286 -1.585511,2.459267 -0.342055,0.79272 -0.561942,1.635432 -0.650975,2.489569 -0.09882,0.890293 -0.04392,1.792153 0.134548,2.6700599 0.202019,0.923467 0.54597,1.818799 1.035448,2.637087 0.81267,1.366297 2.004024,2.525475 3.429039,3.300922 2.257247,1.254522 5.0765354,1.510885 7.5376974,0.686242 1.766771,-0.575685 3.335515,-1.689042 4.43574308,-3.139182 0.595278,-0.781044 1.058207,-1.65548 1.361135,-2.579852 0.303229,-0.923652 0.45075,-1.8957949 0.427095,-2.8647569 -0.01696,-0.849886 -0.165189,-1.697974 -0.433982,-2.507444 -0.281869,-0.862012 -0.710262,-1.675598 -1.244456,-2.417495 C -1.1541426,3.5145401 -1.5321306,3.0925111 -1.9462496,2.7035984 Z m -0.256317,0.4648777 a 8.6821174,8.3645022 7.0679878e-5 0 1 -9.9e-5,11.8287379 8.6821174,8.3645022 7.0679878e-5 0 1 -12.2782664,3.94e-4 8.6821174,8.3645022 7.0679878e-5 0 1 0,-11.8294869 8.6821174,8.3645022 7.0679878e-5 0 1 12.2783654,3.55e-4 z m 8.886356,-6.7138326 c -0.373796,-0.3768341 -0.884234,-0.6738356 -1.205428,-1.0896337 -0.499759,-0.4183753 -0.820954,-1.125588 -1.541696,-1.188025 -2.074592,0.4953037 -4.03978792,1.426657 -5.695868,2.7305364 -0.365611,-0.3386198 -1.229983,-0.3145797 -1.328996,-0.7884588 -0.0559,-1.9949274 -0.577411,-3.9712862 -1.481908,-5.7650652 -0.699981,-0.5771472 -1.710876,-0.237738 -2.555186,-0.4279542 -0.735314,-0.03231 -1.765174,-0.463456 -2.18648,0.3629682 -1.1400514,1.58438 -1.9318604,3.401546 -2.3101474,5.2945522 -0.50904,-0.030002 -1.158317,0.5181612 -1.553073,0.2206212 -1.371316,-1.4919309 -3.08908,-2.6799274 -4.975824,-3.4929934 -0.913779,-0.0086 -1.45486,0.869724 -2.221814,1.243875 -0.587593,0.436848 -1.680234,0.7425905 -1.450867,1.6437686 0.184253,1.9224897 0.787317,3.80865018 1.766273,5.49375808 -0.40933,0.288299 -0.536889,1.11119292 -1.038244,1.12408902 -2.049139,-0.2926077 -4.159962,-0.1438383 -6.150313,0.4044307 -0.704772,0.5592988 -0.534093,1.5658865 -0.872754,2.3264505 -0.159701,0.699029 -0.792808,1.610343 -0.01497,2.15889 1.421921,1.360461 3.145673,2.42742 5.017347,3.116334 -0.121471,0.4741569 0.334869,1.1847249 -0.04293,1.5035549 -1.765772,1.044044 -3.283014,2.467816 -4.44153,4.121009 -0.169182,0.872243 0.642788,1.544463 0.893516,2.343662 0.337563,0.629151 0.464026,1.70285 1.417329,1.639539 1.993145,0.163895 4.024018,-0.08337 5.913258,-0.716464 0.226673,0.440858 1.047228,0.705251 0.97666,1.184833 -0.652769,1.890862 -0.865469,3.917167 -0.650275,5.897911 0.453745,0.772245 1.524527,0.782371 2.249164,1.240664 0.678721,0.273287 1.492885,1.019098 2.181389,0.379834 1.639212,-1.111126 3.028194,-2.563275 4.056856,-4.21967 0.463127,0.196899 1.2676104,-0.111315 1.5278214,0.301127 0.760966,1.856677 1.952721,3.543545 3.440019,4.931237 0.862374,0.309147 1.690214,-0.339408 2.550892,-0.441328 0.702377,-0.211092 1.823864,-0.143327 1.925373,-1.059381 0.51033908,-1.866294 0.61174808,-3.838287 0.29175008,-5.743621 0.487382,-0.136751 0.901601,-0.868648 1.374211,-0.717561 1.82017092,0.953644 3.85873092,1.504923 5.92343892,1.646894 0.867066,-0.297838 1.065094,-1.309975 1.6587752,-1.918488 0.397351,-0.596746 1.300449,-1.23931 0.767654,-2.003939 -0.853093,-1.742987 -2.0878672,-3.315692 -3.6034122,-4.574213 0.284165,-0.410096 0.110193,-1.228317 0.577414,-1.409349 2.0267802,-0.397123 3.9541492,-1.233836 5.6268976,-2.4034739 0.467319,-0.75337 -0.0539,-1.642047 0,-2.464518 -0.101509,-0.71155 0.184952,-1.781307 -0.752082,-2.0422 -1.8178764,-0.80597 -3.8123186,-1.246674 -5.8137476,-1.27555 -0.05789,-0.487688 -0.735015,-1.007666 -0.497063,-1.4339467 1.285378,-1.5610217 2.206742,-3.39478402 2.7066,-5.3272554 -0.0559,-0.3266381 -0.230965,-0.5813771 -0.455142,-0.8074505 z m -0.0539,0.6718448 c -0.516527,2.03815178 -1.534808,3.9559009 -2.948045,5.5521271 a 14.047978,13.534065 1.6380941e-4 0 1 0.893915,1.8471857 c 2.177697,-0.01644 4.3567912,0.465052 6.3093126,1.394569 l 0.09882,1.736516 0.215594,1.729119 C 9.4439926,10.6274 7.3846714,11.465736 5.2370194,11.81329 a 14.047978,13.534065 1.6380941e-4 0 1 -0.547768,1.968444 c 1.679236,1.336085 3.027695,3.054993 3.9032462,4.976203 L 7.5092384,20.1494 6.5209004,21.607637 c -2.173305,-0.136212 -4.310378,-0.769399 -6.18754292,-1.833185 7e-4,-6.83e-4 0,-0.0087 0,-0.0096 a 14.047978,13.534065 1.6380941e-4 0 1 -1.73173608,1.168686 c 0.396653,2.065712 0.282967,4.219929 -0.32898,6.236253 l -1.758188,0.395354 -1.72954,0.505276 c -1.574035,-1.450207 -2.789145,-3.258843 -3.517373,-5.236269 0,-0.0019 0,-0.0038 0.01,-0.0058 A 14.047978,13.534065 1.6380941e-4 0 1 -10.82899,22.651281 c -1.074475,1.828119 -2.598703,3.408095 -4.412786,4.573896 l -1.610265,-0.786064 -1.662069,-0.684124 c -0.238151,-2.08526 0.03794,-4.222978 0.798794,-6.18849 a 14.047978,13.534065 1.6380941e-4 0 1 -0.776437,-0.692529 14.047978,13.534065 1.6380941e-4 0 1 -0.719245,-0.748436 c -2.040655,0.732925 -4.259573,0.998223 -6.424294,0.768054 l -0.708965,-1.599439 -0.816961,-1.553761 c 1.209022,-1.745181 2.846837,-3.211457 4.741766,-4.245691 0,-9.63e-4 0.01,0.0048 0.01,0.0038 a 14.047978,13.534065 1.6380941e-4 0 1 -0.184551,-2.0295909 c -2.055329,-0.701896 -3.934986,-1.874151 -5.441648,-3.392901 l 0.523713,-1.664154 0.410727,-1.6964257 c 2.09046,-0.5881547 4.323754,-0.6970187 6.465318,-0.3159351 -6.99e-4,6.82e-4 0.01,0.0077 0.01,0.0077 a 14.047978,13.534065 1.6380941e-4 0 1 1.21232,-1.66901982 C -20.519655,-1.0722296 -21.177716,-3.1343734 -21.31855,-5.2307022 l 1.511751,-0.9504606 1.446476,-1.045005 c 1.993443,0.843933 3.776384,2.1431201 5.162671,3.7608195 a 14.047978,13.534065 1.6380941e-4 0 1 2.044249,-0.5274213 c 0.361519,-2.0687401 1.2318784,-4.0528302 2.5209504,-5.7436412 l 1.792123,0.207986 1.805098,0.0953 c 0.964184,1.881333 1.463743,3.9811047 1.446075,6.079222 0,0.00192 0,0.00385 -0.01,0.00577 a 14.047978,13.534065 1.6380941e-4 0 1 1.916189,0.8608195 c 1.65857608,-1.3638981 3.652019,-2.3463416 5.770627,-2.84403 l 1.234975,1.2692037 z M 22.195462,-20.804378 c -0.615141,-0.572117 -1.267712,-1.109213 -1.884549,-1.679252 -2.772676,-2.222962 -5.824625,-4.137471 -9.13948,-5.521174 -3.1675324,-1.367537 -6.5466666,-2.281794 -9.9831906,-2.742873 -3.899553,-0.522297 -7.888937,-0.453455 -11.7607414,0.23617 -4.302393,0.74035 -8.462256,2.22906 -12.230155,4.361602 -3.401193,1.912749 -6.472006,4.363834 -9.084085,7.202936 -3.038077,3.324 -5.441347,7.186414 -7.027459,11.3452632 -1.60837,4.1831281 -2.386504,8.6595459 -2.296972,13.1197599 -0.0539,1.023419 0.221781,2.091886 0.12177,3.080888 -2.254153,2.6938029 -3.857231,5.8840829 -4.629776,9.2644339 -0.815763,3.563536 -0.715852,7.318077 0.308219,10.833322 1.020976,3.547104 2.969604,6.841804 5.618913,9.495662 2.646014,2.663869 5.994405,4.66194 9.63265,5.802309 3.537435,1.087729 7.338872,1.350757 11.001372,0.75611 3.727976,-0.606552 7.281781,-2.11385 10.2865174,-4.322647 3.575463,0.441568 7.211213,0.416308 10.773202,-0.127163 3.814612,-0.580896 7.5290152,-1.740669 10.9821096,-3.407324 3.412471,-1.671271 6.560239,-3.83722 9.302173,-6.412313 2.764691,-2.632308 5.110471,-5.669078 6.920161,-8.984741 1.801506,-3.33755 3.066123,-6.940985 3.727477,-10.649504 0.64828,-3.7108819 0.689003,-7.5161369 0.129458,-11.24094412 -0.576714,-3.68783418 -1.729941,-7.29231568 -3.440418,-10.64008988 -1.72505,-3.375696 -4.006751,-6.483721 -6.727224,-9.183967 -0.194134,-0.200929 -0.394956,-0.395739 -0.60017,-0.58633 z m -0.122169,0.582944 a 36.778007,35.43257 1.6685271e-4 0 1 -10e-5,50.108562 36.778007,35.43257 1.6685271e-4 0 1 -31.0872296,10.015698 22.730148,21.898619 1.0123961e-4 0 1 -30.0887064,-1.736478 22.730148,21.898619 1.0123961e-4 0 1 -1.386687,-29.4904679 36.778007,35.43257 1.6685271e-4 0 1 10.551019,-28.8976981 36.778007,35.43257 1.6685271e-4 0 1 52.011704,3.84e-4 z"
       inkscape:export-filename="/home/bartek/Pictures/logo/logo-full.png"
       inkscape:export-xdpi="300"
       inkscape:export-ydpi="300" />
  </g>
  <g
     inkscape:groupmode="layer"
     id="layer4"
     inkscape:label="interp_lighter"
     style="display:inline;mix-blend-mode:normal;filter:url(#filter109798)"
     transform="translate(73.454928,40.874852)">
    <path
       id="path109908"
       style="fill:none;fill-opacity:1;stroke:#a3a3fa;stroke-width:1.05833;stroke-linecap:round;stroke-linejoin:round;stroke-miterlimit:4;stroke-dasharray:none;stroke-opacity:1"
       d="m -51.163931,57.390673 c -0.1877,-0.18908 -0.3781,-0.37526 -0.5713,-0.55854 -3.2542,-3.080045 -7.420803,-5.174975 -11.831203,-5.961295 -0.4753,-0.0789 -0.9561,-0.17115 -1.4342,-0.20205 -0.1342,0.0734 -0.3607,0.0438 -0.4246,0.19583 -0.051,0.15846 -0.2075,0.3135 -0.09,0.47686 0.086,0.2989 0.357,0.49066 0.536,0.73487 3.299,3.812255 7.376303,6.952125 11.922503,9.135155 1.639,0.79145 3.3364,1.46091 5.0726,2.00682 0.1483,-0.0422 0.3538,0.01 0.4652,-0.0939 0.081,-0.15427 0.2805,-0.28055 0.1915,-0.47353 -0.033,-0.32231 -0.2733,-0.57129 -0.4137,-0.85361 -0.9587,-1.5993 -2.1115,-3.08156 -3.4231,-4.4068 z m -0.551,0.19661 c 1.5341,1.51603 2.8452,3.24244 3.8937,5.12737 -3.3502,-1.04867 -6.5335,-2.57079 -9.453,-4.52007 -2.909003,-1.95494 -5.524503,-4.314515 -7.766803,-7.008195 3.5758,0.41961 7.0015,1.68064 9.995303,3.680365 1.1936,0.79976 2.3088,1.71066 3.3308,2.72053 z m 6.9231,-6.568765 c -0.1876,-0.18908 -0.378,-0.37526 -0.5712,-0.55854 -3.2542,-3.08006 -7.4209,-5.17498 -11.8312,-5.9613 -0.4754,-0.0789 -0.956203,-0.17115 -1.434203,-0.20205 -0.1343,0.0734 -0.3607,0.0438 -0.4247,0.19582 -0.051,0.15847 -0.2074,0.31351 -0.09,0.47687 0.087,0.29889 0.357,0.49066 0.5361,0.73487 3.299003,3.81226 7.376303,6.95213 11.922503,9.135145 1.639,0.79146 3.3364,1.46093 5.0726,2.00683 0.1483,-0.0422 0.3538,0.01 0.4651,-0.0939 0.081,-0.15427 0.2806,-0.28054 0.1916,-0.47352 -0.033,-0.32231 -0.2733,-0.5713 -0.4137,-0.85361 -0.9587,-1.599305 -2.1116,-3.081555 -3.4231,-4.406795 z m -0.551,0.1966 c 1.5342,1.51604 2.8452,3.24245 3.8938,5.127375 -3.3502,-1.04867 -6.5335,-2.570795 -9.4531,-4.520065 -2.9089,-1.95495 -5.5244,-4.31453 -7.766803,-7.0082 3.575903,0.41961 7.001503,1.68064 9.995403,3.68037 1.1936,0.79975 2.3088,1.71067 3.3307,2.72052 z m 6.9232,-6.56876 c -0.1877,-0.18908 -0.3781,-0.37526 -0.5713,-0.55854 -3.2542,-3.08005 -7.4208,-5.17498 -11.8312,-5.9613 -0.4753,-0.0789 -0.9561,-0.17115 -1.4342,-0.20204 -0.1342,0.0734 -0.3607,0.0438 -0.4246,0.19582 -0.051,0.15846 -0.2075,0.3135 -0.09,0.47686 0.087,0.2989 0.357,0.49066 0.5361,0.73487 3.2989,3.81226 7.3762,6.95213 11.9224,9.13516 1.639,0.79146 3.3364,1.46092 5.0726,2.00682 0.1483,-0.0422 0.3539,0.01 0.4652,-0.0939 0.081,-0.15427 0.2805,-0.28055 0.1915,-0.47352 -0.033,-0.32232 -0.2733,-0.5713 -0.4137,-0.85361 -0.9587,-1.59931 -2.1115,-3.08156 -3.4231,-4.40681 z m -0.551,0.19661 c 1.5341,1.51604 2.8452,3.24245 3.8937,5.12738 -3.3502,-1.04867 -6.5334,-2.5708 -9.453,-4.52007 -2.909,-1.95495 -5.5245,-4.31453 -7.7668,-7.00821 3.5758,0.41962 7.0015,1.68065 9.9953,3.68038 1.1936,0.79975 2.3089,1.71066 3.3308,2.72052 z M -1.9208314,2.2069694 c -0.138,-0.1352 -0.2811,-0.26573 -0.4272,-0.39287 -0.7334,-0.60896 -1.5486,-1.12325984 -2.4321,-1.48497984 -0.823,-0.34609 -1.6991,-0.56756 -2.5871,-0.65993 -0.934,-0.10144 -1.881,-0.0487 -2.8022996,0.13116 -0.9606,0.20229 -1.8918,0.5478 -2.7431,1.03813 -0.8823,0.50467984 -1.6795,1.15678984 -2.3499,1.92097984 -0.6643,0.7576497 -1.2049,1.6252597 -1.5885,2.5574597 -0.3427,0.82437 -0.563,1.70073 -0.6523,2.5889 -0.099,0.92591 -0.043,1.86378 0.1349,2.7767389 0.2024,0.96034 0.547,1.89142 1.0374,2.74238 0.8142,1.42085 2.0078,2.62631 3.4355,3.43272 2.2615,1.30461 5.0860996,1.57121 7.5518996,0.71364 1.7701,-0.59867 3.3417,-1.75655 4.44409992,-3.26452 0.5964,-0.8123 1.0602,-1.72158 1.3637,-2.68286 0.3037,-0.9606 0.45160004,-1.9714889 0.42790004,-2.9791389 -0.017,-0.88382 -0.16550004,-1.76577 -0.43480004,-2.60756 -0.2824,-0.89643 -0.7116,-1.7425 -1.2468,-2.51402 C -1.1272315,3.0503494 -1.5059314,2.6114694 -1.9208314,2.2070294 Z m -0.2568,0.48344 a 8.6984762,8.6984754 45 0 1 -10e-5,12.3010286 8.6984762,8.6984754 45 0 1 -12.3013996,4.1e-4 8.6984762,8.6984754 45 0 1 0,-12.3018086 8.6984762,8.6984754 45 0 1 12.3014996,3.7e-4 z m 8.9031,-6.9819 c -0.3746,-0.39195 -0.8859,-0.70074 -1.2077,-1.13314 -0.5007,-0.4350802 -0.8225,-1.1705302 -1.5446,-1.2354602 -2.0786,0.51501 -4.04740008,1.4836202 -5.7066,2.8395602 -0.3663,-0.35214 -1.2323,-0.32714 -1.3315,-0.81994 -0.056,-2.0745802 -0.5785,-4.1298502 -1.4847,-5.9952514 -0.7013,-0.60019 -1.7141,-0.24723 -2.56,-0.44504 -0.7367,-0.0336 -1.7685,-0.48196 -2.1906,0.37746 -1.1421996,1.6476412 -1.9354996,3.5373612 -2.3144996,5.5059514 -0.51,-0.0313 -1.1605,0.53885 -1.556,0.22943 -1.3739,-1.5515002 -3.095,-2.7870002 -4.9852,-3.6324602 -0.9155,-0.009 -1.4576,0.90445 -2.226,1.29354 -0.5887,0.45429 -1.6834,0.77224 -1.4537,1.7093302 0.1847,1.99932 0.7889,3.96079 1.7697,5.71318016 -0.4101,0.29981 -0.538,1.15548984 -1.0402,1.16896984 -2.053,-0.30428984 -4.1678,-0.14958 -6.1619,0.42058 -0.7061,0.58163 -0.5351,1.6283397 -0.8744,2.4193397 -0.16,0.72694 -0.7943,1.67464 -0.015,2.24509 1.4246,1.41478 3.1516,2.52434 5.0268,3.24076 -0.1217,0.4930889 0.3354,1.2319589 -0.043,1.5635889 -1.7692,1.08566 -3.2892,2.56635 -4.45,4.28548 -0.1694,0.90714 0.6441,1.6062 0.8953,2.43731 0.3382,0.65427 0.4649,1.77084 1.42,1.705 1.9969,0.17044 4.0316,-0.0867 5.9244,-0.74507 0.2271,0.45846 1.0492,0.73341 0.9785,1.23214 -0.654,1.96629 -0.8671,4.07357 -0.6515,6.13333 0.4546,0.80315 1.5274,0.81368 2.2534,1.29027 0.68,0.2842 1.4957,1.05979 2.1855,0.395 1.6423,-1.15549 3.0339,-2.66562 4.0645,-4.38815 0.464,0.20476 1.2699996,-0.11576 1.5306996,0.31315 0.7624,1.93081 1.9564,3.68503 3.4465,5.12813 0.864,0.32149 1.6934,-0.35296 2.5557,-0.45895 0.7037,-0.21952 1.8273,-0.14905 1.9289999,-1.10168 0.51130002,-1.94081 0.61290002,-3.99154 0.29230002,-5.97295 0.4882,-0.14228 0.9033,-0.90333 1.3768,-0.74621 1.82360008,0.99172 3.86600008,1.56501 5.93460008,1.71265 0.8687,-0.30973 1.0671,-1.36228 1.6619,-1.99509 0.3981,-0.62057 1.3029,-1.28879 0.7691,-2.08395 -0.8547,-1.81258 -2.0918,-3.44808 -3.6102,-4.75685 0.2847,-0.42647 0.1104,-1.27736 0.5784,-1.46569 2.0307,-0.41291 3.9617002,-1.28311 5.6376004,-2.4993689 0.4682,-0.78345 -0.054,-1.70761 0,-2.56292 -0.1017,-0.73996 0.1852,-1.8525 -0.7535,-2.12374 -1.8213004,-0.83815 -3.8196004,-1.29652 -5.8247004,-1.32648 -0.058,-0.5071597 -0.7364,-1.0478997 -0.498,-1.4911997 1.2878,-1.62334984 2.2108,-3.5304 2.7117,-5.53996 -0.056,-0.33968 -0.2314,-0.60459 -0.456,-0.83969 z m -0.054,0.69867 c -0.5176,2.11946 -1.5377,4.11385016 -2.9536,5.77381 a 14.074448,14.074445 45 0 1 0.8956,1.9208697 c 2.1818,-0.017 4.365,0.48369 6.3212004,1.45032 l 0.099,1.80585 0.216,1.79816 C 9.4908686,10.447208 7.4275686,11.318948 5.2759686,11.680448 a 14.074448,14.074445 45 0 1 -0.5488,2.04704 c 1.6824,1.38943 3.0334,3.17697 3.9106,5.17489 l -1.0853,1.44702 -0.9902,1.51646 c -2.1774,-0.14165 -4.3185,-0.80012 -6.19920008,-1.90638 7e-4,-7.1e-4 0,-0.009 0,-0.01 a 14.074448,14.074445 45 0 1 -1.73499992,1.21535 c 0.39739992,2.14819 0.2834999,4.38842 -0.3296,6.48525 l -1.7616,0.41107 -1.7328,0.52545 c -1.5769,-1.50804 -2.7943,-3.38889 -3.5239,-5.44527 0,-0.002 0,-0.004 0.01,-0.006 a 14.074448,14.074445 45 0 1 -2.1104996,-0.18414 c -1.0765,1.90111 -2.6036,3.54417 -4.4211,4.75652 l -1.6133,-0.81745 -1.6652,-0.71144 c -0.2386,-2.16852 0.038,-4.39166 0.8003,-6.43558 a 14.074448,14.074445 45 0 1 -0.778,-0.72025 14.074448,14.074445 45 0 1 -0.7205,-0.77825 c -2.0445,0.76219 -4.2676,1.03808 -6.4364,0.79872 l -0.7103,-1.6633 -0.8185,-1.61587 c 1.2113,-1.81479 2.8522,-3.33961 4.7506,-4.41522 0,-0.001 0.01,0.005 0.01,0.004 a 14.074448,14.074445 45 0 1 -0.1848,-2.1105589 c -2.0593,-0.72999 -3.9424,-1.94898 -5.4519,-3.52837 l 0.5247,-1.7306 0.4115,-1.7641597 c 2.0944,-0.61164 4.3319,-0.72485 6.4775,-0.32855 -7e-4,7.1e-4 0.01,0.008 0.01,0.008 a 14.074448,14.074445 45 0 1 1.2146,-1.73564984 c -1.1081,-1.88269016 -1.7674,-4.02717016 -1.9085,-6.20720036 l 1.5146,-0.98841 1.4492,-1.08673 c 1.9972,0.87763 3.7835,2.22869 5.1724,3.9109802 a 14.074448,14.074445 45 0 1 2.0481,-0.54848 c 0.3622,-2.1513402 1.2341996,-4.2146502 2.5256996,-5.9729714 l 1.7955,0.21629 1.8085,0.0991 c 0.966,1.9564512 1.4665,4.1400612 1.4488,6.3219514 0,0.002 0,0.004 -0.01,0.006 a 14.074448,14.074445 45 0 1 1.9198,0.89519 c 1.66169992,-1.41835 3.6589,-2.44002 5.7815,-2.9575802 l 1.2373,1.3198802 z M 22.266369,-22.239562 c -0.6163,-0.59496 -1.2701,-1.1535 -1.8881,-1.7463 -2.7779,-2.31172 -5.8356,-4.30267 -9.1567,-5.74162 -3.1735004,-1.42214 -6.5590004,-2.3729 -10.0020004,-2.85239 -3.9069,-0.54315 -7.9038,-0.47156 -11.7828996,0.24553 -4.3105,0.76998 -8.4782,2.31813 -12.2532,4.53582 -3.4076,1.98912 -6.4842,4.53807 -9.1012,7.49053 -3.0438,3.45672 -5.4516,7.47335 -7.0407,11.7982512 -1.6114,4.3501502 -2.391,9.00530036 -2.3013,13.6435999 -0.054,1.06428 0.2222,2.17541 0.122,3.2039 -2.2584,2.8013589 -3.8645,6.1190189 -4.6385,9.6343389 -0.8173,3.70582 -0.7172,7.61027 0.3088,11.26587 1.0229,3.68873 2.9752,7.11498 5.6294,9.87473 2.6511,2.7703 6.0058,4.84815 9.6508,6.03398 3.5442,1.13123 7.3528,1.40476 11.0222,0.78637 3.735,-0.63077 7.2955,-2.19825 10.3058996,-4.49524 3.5822,0.4592 7.2248,0.43293 10.7935,-0.13224 3.8218,-0.60409 7.5432,-1.81024 11.0028004,-3.54337 3.4189,-1.738 6.5725,-3.9905 9.3197,-6.66834 2.7699,-2.73741 5.1201,-5.89543 6.9332,-9.34348 1.8049,-3.47081 3.0719,-7.21812 3.7345,-11.07479 0.6495,-3.8589689 0.6903,-7.8161586 0.1297,-11.6896886 -0.5778,-3.83508 -1.7332,-7.5834802 -3.4469,-11.0649214 -1.7283,-3.51048 -4.0143,-6.7426 -6.7399,-9.55066 -0.1946,-0.20902 -0.3957,-0.41154 -0.6013,-0.60974 z m -0.1224,0.60622 a 36.847306,36.847298 45 0 1 -10e-5,52.10927 36.847306,36.847298 45 0 1 -31.1458004,10.4156 22.772977,22.772974 45 0 1 -30.1453996,-1.80581 22.772977,22.772974 45 0 1 -1.3893,-30.6679489 36.847306,36.847298 45 0 1 10.5709,-30.0515111 36.847306,36.847298 45 0 1 52.1097,4e-4 z"
       inkscape:export-filename="/home/bartek/Pictures/logo/logo-full.png"
       inkscape:export-xdpi="300"
       inkscape:export-ydpi="300" />
  </g>
  <g
     inkscape:groupmode="layer"
     id="layer3"
     inkscape:label="white"
     style="display:inline;mix-blend-mode:normal"
     transform="translate(73.454928,40.874852)">
    <path
       id="path109910"
       style="fill:none;fill-opacity:1;stroke:#f3f4f7;stroke-width:0.79375;stroke-linecap:round;stroke-linejoin:round;stroke-miterlimit:4;stroke-dasharray:none;stroke-opacity:1"
       d="m -51.162244,57.390664 c -0.1877,-0.18908 -0.3781,-0.37526 -0.5713,-0.55854 -3.2542,-3.080045 -7.420803,-5.174975 -11.831203,-5.961295 -0.4753,-0.0789 -0.9561,-0.17115 -1.4342,-0.20205 -0.1342,0.0734 -0.3607,0.0438 -0.4246,0.1959 -0.051,0.15846 -0.2074,0.3135 -0.09,0.47679 0.086,0.2989 0.357,0.49066 0.536,0.73487 3.299,3.812255 7.376303,6.952125 11.922503,9.135155 1.639,0.79145 3.3364,1.46091 5.0726,2.00682 0.1483,-0.0422 0.3538,0.01 0.4652,-0.0939 0.081,-0.15427 0.2806,-0.28055 0.1915,-0.4736 -0.033,-0.32231 -0.2733,-0.57129 -0.4137,-0.85361 -0.9587,-1.5993 -2.1115,-3.08156 -3.4231,-4.4068 z m -0.551,0.19661 c 1.5341,1.51603 2.8452,3.24244 3.8937,5.12737 -3.3502,-1.04867 -6.5335,-2.57079 -9.453,-4.52007 -2.909003,-1.95494 -5.524503,-4.314515 -7.766803,-7.008195 3.5758,0.41961 7.0015,1.68064 9.995303,3.680365 1.1936,0.79976 2.3088,1.71066 3.3308,2.72053 z m 6.9231,-6.568765 c -0.1876,-0.18908 -0.378,-0.37526 -0.5712,-0.55854 -3.2542,-3.08006 -7.4209,-5.17498 -11.8312,-5.9613 -0.4754,-0.0789 -0.956203,-0.17115 -1.434203,-0.20205 -0.1343,0.0734 -0.3607,0.0438 -0.4246,0.19589 -0.051,0.15847 -0.2074,0.31351 -0.09,0.4768 0.087,0.29889 0.357,0.49066 0.5361,0.73487 3.299003,3.81226 7.376303,6.95213 11.922503,9.135145 1.639,0.79146 3.3364,1.46093 5.0726,2.00683 0.1483,-0.0422 0.3538,0.01 0.4652,-0.0939 0.081,-0.15427 0.2805,-0.28054 0.1915,-0.47359 -0.033,-0.32231 -0.2733,-0.5713 -0.4137,-0.85361 -0.9587,-1.599305 -2.1116,-3.081555 -3.4231,-4.406795 z m -0.551,0.1966 c 1.5342,1.51604 2.8452,3.24245 3.8938,5.127375 -3.3502,-1.04867 -6.5335,-2.570795 -9.4531,-4.520065 -2.9089,-1.95495 -5.5244,-4.31453 -7.766803,-7.0082 3.575903,0.41961 7.001503,1.68064 9.995403,3.68037 1.1936,0.79975 2.3088,1.71067 3.3307,2.72052 z m 6.9232,-6.56876 c -0.1877,-0.18908 -0.3781,-0.37526 -0.5713,-0.55854 -3.2542,-3.08005 -7.4208,-5.17498 -11.8312,-5.9613 -0.4753,-0.0789 -0.9561,-0.17115 -1.4342,-0.20204 -0.1342,0.0734 -0.3607,0.0438 -0.4245,0.19589 -0.051,0.15846 -0.2075,0.3135 -0.09,0.47679 0.087,0.2989 0.357,0.49066 0.5361,0.73487 3.2989,3.81226 7.3762,6.95213 11.9224,9.13516 1.639,0.79146 3.3364,1.46092 5.0726,2.00682 0.1483,-0.0422 0.3539,0.01 0.4653,-0.0938 0.081,-0.15427 0.2805,-0.28055 0.1914,-0.47359 -0.033,-0.32232 -0.2733,-0.5713 -0.4137,-0.85361 -0.9587,-1.59931 -2.1115,-3.08156 -3.4231,-4.40681 z m -0.551,0.19661 c 1.5341,1.51604 2.8452,3.24245 3.8937,5.12738 -3.3502,-1.04867 -6.5334,-2.5708 -9.453,-4.52007 -2.909,-1.95495 -5.5245,-4.31453 -7.7668,-7.00821 3.5758,0.41962 7.0015,1.68065 9.9953,3.68038 1.1936,0.79975 2.3089,1.71066 3.3308,2.72052 z m 37.0498,-42.6359986 c -0.138,-0.1352 -0.2811,-0.26573 -0.4271,-0.39279 -0.7335,-0.60904 -1.5487,-1.12333984 -2.4322,-1.48505984 -0.823,-0.34609 -1.6991,-0.56756 -2.5871,-0.65993 -0.934,-0.10144 -1.8809,-0.0486 -2.8022,0.13123 -0.9607,0.20222 -1.8919,0.54773 -2.7432,1.03813 -0.8823,0.50460984 -1.6794,1.15678984 -2.3499,1.92090984 -0.6643,0.7576497 -1.2049,1.6252597 -1.5885,2.5574597 -0.3427,0.82437 -0.563,1.70073 -0.6522,2.58897 -0.099,0.92584 -0.044,1.86371 0.1348,2.7766689 0.2024,0.96034 0.547,1.89142 1.0374,2.74238 0.8142,1.42085 2.0078,2.62631 3.4355,3.43272 2.2615,1.30461 5.0861,1.57121 7.5519,0.71364 1.7701,-0.59867 3.3418,-1.75648 4.44409998,-3.26452 0.5964,-0.81223 1.0602,-1.72158 1.3637,-2.68286 0.3038,-0.96053 0.45160004,-1.9714889 0.42790004,-2.9791389 -0.017,-0.88382 -0.16550004,-1.76577 -0.43480004,-2.60756 -0.2824,-0.89643 -0.7116,-1.7425 -1.2468,-2.51402 C -1.125544,3.0503404 -1.504244,2.6114604 -1.919144,2.2070204 Z m -0.2568,0.48344 a 8.6984762,8.6984754 45 0 1 -1e-4,12.3010286 8.6984762,8.6984754 45 0 1 -12.3014,4.1e-4 8.6984762,8.6984754 45 0 1 0,-12.3018086 8.6984762,8.6984754 45 0 1 12.3015,3.7e-4 z m 8.9031,-6.9819 c -0.3745,-0.39188 -0.8859,-0.70074 -1.2077,-1.13314 -0.5007,-0.4350802 -0.8225,-1.1705302 -1.5446,-1.2354602 -2.0785,0.51508 -4.04740002,1.4836202 -5.7066,2.8395602 -0.3663,-0.35214 -1.2323,-0.32714 -1.3315,-0.81994 -0.056,-2.0745802 -0.5785,-4.1298502 -1.4847,-5.9952514 -0.7013,-0.60019 -1.7141,-0.24723 -2.56,-0.44504 -0.7367,-0.0336 -1.7685,-0.48196 -2.1906,0.37746 -1.1422,1.6476412 -1.9355,3.5373612 -2.3145,5.5059514 -0.51,-0.0312 -1.1605,0.53885 -1.556,0.22943 -1.3739,-1.5515002 -3.0949,-2.7869302 -4.9852,-3.6324602 -0.9155,-0.009 -1.4576,0.90445 -2.226,1.29354 -0.5887,0.45429 -1.6834,0.77224 -1.4536,1.7094002 0.1846,1.99925 0.7888,3.96072 1.7696,5.71311016 -0.4101,0.29981 -0.5379,1.15555984 -1.0402,1.16896984 -2.053,-0.30428984 -4.1678,-0.14958 -6.1619,0.42058 -0.7061,0.58163 -0.5351,1.6284097 -0.8744,2.4193397 -0.16,0.72694 -0.7943,1.67464 -0.015,2.24509 1.4246,1.41478 3.1516,2.52434 5.0268,3.24076 -0.1217,0.4930889 0.3355,1.2320289 -0.043,1.5635889 -1.7691,1.08573 -3.2892,2.56635 -4.4499,4.28555 -0.1695,0.90707 0.644,1.60613 0.8952,2.43724 0.3382,0.65427 0.4649,1.77084 1.42,1.705 1.9969,0.17044 4.0316,-0.0867 5.9244,-0.74507 0.2271,0.45846 1.0492,0.73341 0.9785,1.23214 -0.654,1.96636 -0.8671,4.07357 -0.6515,6.1334 0.4546,0.80308 1.5274,0.81361 2.2534,1.2902 0.68,0.2842 1.4957,1.05979 2.1855,0.395 1.6423,-1.15549 3.0339,-2.66562 4.0645,-4.38815 0.464,0.20476 1.27,-0.11576 1.5307,0.31315 0.7624,1.93081 1.9564,3.68503 3.4465,5.12813 0.864,0.32149 1.6934,-0.35296 2.5557,-0.45895 0.7037,-0.21952 1.8273,-0.14905 1.929,-1.10168 0.51129998,-1.94081 0.61289998,-3.99154 0.29229998,-5.97295 0.4883,-0.14221 0.9033,-0.90333 1.3768,-0.74621 1.82360002,0.99172 3.86600002,1.56501 5.93460002,1.71265 0.8687,-0.30973 1.0671,-1.36228 1.6619,-1.99509 0.3981,-0.62057 1.3029,-1.28879 0.7691,-2.08395 -0.8547,-1.81258 -2.0918,-3.44808 -3.6102,-4.75685 0.2847,-0.42647 0.1104,-1.27736 0.5785,-1.46562 2.0306,-0.41298 3.9616002,-1.2831 5.6375,-2.4994389 0.4682,-0.78345 -0.054,-1.70761 0,-2.56292 -0.1017,-0.73996 0.1853,-1.85243 -0.7535,-2.12374 -1.8213,-0.83815 -3.8195,-1.29645 -5.8247,-1.32648 -0.058,-0.5071597 -0.7364,-1.0478997 -0.498,-1.4911997 1.2878,-1.62334984 2.2109,-3.53033 2.7117,-5.53996 -0.056,-0.33968 -0.2314,-0.60459 -0.456,-0.83969 z m -0.054,0.69867 c -0.5175,2.11953 -1.5377,4.11385016 -2.9536,5.77381 a 14.074448,14.074445 45 0 1 0.8956,1.9209397 c 2.1818,-0.0171 4.365,0.48362 6.3212,1.45025 l 0.099,1.80585 0.216,1.79816 c -1.7588,1.2910189 -3.822,2.1628289 -5.9737,2.5242589 a 14.074448,14.074445 45 0 1 -0.5488,2.04704 c 1.6824,1.38943 3.0334,3.17697 3.9106,5.17489 l -1.0853,1.44702 -0.9902,1.51646 c -2.1774,-0.14165 -4.3185,-0.80012 -6.19920002,-1.90638 7e-4,-7.1e-4 0,-0.009 0,-0.01 a 14.074448,14.074445 45 0 1 -1.73499998,1.21535 c 0.39739998,2.14819 0.2835,4.38842 -0.3296,6.48525 l -1.7615,0.41114 -1.7328,0.52545 c -1.577,-1.50811 -2.7944,-3.38896 -3.524,-5.44534 0,-0.002 0,-0.004 0.01,-0.006 a 14.074448,14.074445 45 0 1 -2.1105,-0.18414 c -1.0765,1.90111 -2.6036,3.54417 -4.4211,4.75652 l -1.6133,-0.81745 -1.6652,-0.71144 c -0.2386,-2.16852 0.038,-4.39159 0.8003,-6.43558 a 14.074448,14.074445 45 0 1 -0.7779,-0.72018 14.074448,14.074445 45 0 1 -0.7206,-0.77832 c -2.0445,0.76219 -4.2676,1.03808 -6.4364,0.79872 l -0.7103,-1.6633 -0.8185,-1.6158 c 1.2113,-1.81486 2.8522,-3.33968 4.7507,-4.41521 0,-10e-4 0.01,0.005 0.01,0.004 a 14.074448,14.074445 45 0 1 -0.1849,-2.1106289 c -2.0592,-0.72992 -3.9424,-1.94898 -5.4519,-3.52837 l 0.5247,-1.7306 0.4115,-1.7641597 c 2.0944,-0.61164 4.3319,-0.72485 6.4775,-0.32855 -7e-4,7.1e-4 0.01,0.008 0.01,0.008 a 14.074448,14.074445 45 0 1 1.2146,-1.73564984 c -1.1081,-1.88269016 -1.7674,-4.02717016 -1.9085,-6.20720036 l 1.5146,-0.98841 1.4492,-1.08673 c 1.9972,0.87763 3.7835,2.22869 5.1724,3.9109802 a 14.074448,14.074445 45 0 1 2.0481,-0.54848 c 0.3622,-2.1513402 1.2342,-4.2146502 2.5257,-5.9729714 l 1.7955,0.21629 1.8085,0.0991 c 0.966,1.9564512 1.4665,4.1400612 1.4488,6.3219514 0,0.002 0,0.004 -0.01,0.006 a 14.074448,14.074445 45 0 1 1.9198,0.89519 c 1.66169998,-1.41835 3.6589,-2.44002 5.7815,-2.9575802 l 1.2373,1.3198802 z m 15.5949,-18.6467414 c -0.6163,-0.59496 -1.2701,-1.1535 -1.8881,-1.7463 -2.7779,-2.31172 -5.8356,-4.30267 -9.1567,-5.74162 -3.1735,-1.42214 -6.559,-2.3729 -10.002,-2.85239 -3.9069,-0.54315 -7.9038,-0.47156 -11.7829,0.2456 -4.3105,0.76991 -8.4782,2.31806 -12.2532,4.53575 -3.4076,1.98912 -6.4842,4.53807 -9.1012,7.49053 -3.0438,3.45672 -5.4516,7.47335 -7.0407,11.7982512 -1.6114,4.3501502 -2.391,9.00530036 -2.3013,13.6435999 -0.054,1.06428 0.2222,2.17541 0.122,3.2039 -2.2584,2.8013589 -3.8645,6.1190189 -4.6385,9.6343389 -0.8173,3.70582 -0.7172,7.61027 0.3088,11.26587 1.0229,3.68873 2.9752,7.11498 5.6295,9.8748 2.651,2.77023 6.0057,4.84808 9.6508,6.03398 3.5441,1.13116 7.3527,1.40469 11.0221,0.7863 3.735,-0.63077 7.2955,-2.19825 10.3059,-4.49524 3.5822,0.4592 7.2248,0.43293 10.7935,-0.13224 3.8218,-0.60409 7.5432,-1.81017 11.0028,-3.54337 3.4189,-1.738 6.5726,-3.99043 9.3197,-6.66834 2.7699,-2.73741 5.1201,-5.89543 6.9332,-9.34348 1.8049,-3.47081 3.0719,-7.21812 3.7345,-11.07471 0.6495,-3.8590489 0.6903,-7.8162386 0.1297,-11.6897686 -0.5778,-3.83508 -1.7332,-7.5834802 -3.4469,-11.0649214 -1.7283,-3.51048 -4.0143,-6.7426 -6.7399,-9.55066 -0.1945,-0.20895 -0.3957,-0.41154 -0.6013,-0.60974 z m -0.1224,0.60622 a 36.847306,36.847298 45 0 1 -10e-5,52.10927 36.847306,36.847298 45 0 1 -31.1458,10.4156 22.772977,22.772974 45 0 1 -30.1454,-1.80581 22.772977,22.772974 45 0 1 -1.3893,-30.6679489 36.847306,36.847298 45 0 1 10.5709,-30.0515111 36.847306,36.847298 45 0 1 52.1097,4e-4 z"
       inkscape:export-filename="/home/bartek/Pictures/logo/logo-full.png"
       inkscape:export-xdpi="300"
       inkscape:export-ydpi="300" />
  </g>
</svg>
